<?xml version="1.0" encoding="UTF-8"?>
<svg width="32" height="32" viewBox="0 0 32 32" fill="none" xmlns="http://www.w3.org/2000/svg">
  <rect width="32" height="32" rx="8" fill="white"/>
  <path d="M22 16C22 19.3137 19.3137 22 16 22C12.6863 22 10 19.3137 10 16C10 12.6863 12.6863 10 16 10C19.3137 10 22 12.6863 22 16ZM20 16C20 13.7909 18.2091 12 16 12C13.7909 12 12 13.7909 12 16C12 18.2091 13.7909 20 16 20C17.8638 20 19.4299 18.7252 19.874 17H16V15H22V16C22 18.2091 20.2091 20 18 20C16.3431 20 14.8431 19.1571 14 17.874V16C14 13.7909 15.7909 12 18 12C19.8638 12 21.4299 13.2748 21.874 15H20Z" fill="black"/>
</svg> 